<svg width="28" height="28" viewBox="0 0 28 28" fill="none" xmlns="http://www.w3.org/2000/svg">
<g opacity="0.7" clip-path="url(#clip0_1_5012)">
<path d="M17.7898 19.3875C17.7188 18.4234 17.6989 17.4563 17.7301 16.4902L17.729 16.5326C18.5924 15.6375 19.1309 14.4789 19.2585 13.2417L19.2608 13.2176C19.6498 13.1855 20.2637 12.8068 20.4427 11.306C20.4967 11.0475 20.4763 10.779 20.3839 10.5316C20.2915 10.2842 20.1309 10.0681 19.9206 9.90839L19.9171 9.90609C20.5505 8.00132 21.8655 2.10802 17.4834 1.49987C17.0325 0.708126 15.8781 0.306519 14.3773 0.306519C8.37264 0.416674 7.6486 4.8401 8.96129 9.90609C8.74933 10.0673 8.58767 10.2856 8.49521 10.5353C8.40275 10.785 8.38332 11.0559 8.4392 11.3163L8.43805 11.3071C8.62164 12.8057 9.23094 13.1867 9.61992 13.2188C9.75637 14.4697 10.312 15.6376 11.1965 16.5326C11.2256 17.5157 11.2034 18.4996 11.13 19.4804L11.1357 19.3875C9.94465 22.582 1.92627 21.6847 1.55908 27.8453H27.3285C26.9591 21.6847 18.9774 22.582 17.7886 19.3875H17.7898Z" fill="white"/>
</g>
<defs>
<clipPath id="clip0_1_5012">
<rect width="27.5388" height="27.5388" fill="white" transform="translate(0.182373 0.306519)"/>
</clipPath>
</defs>
</svg>
