<svg width="163" height="52" viewBox="0 0 163 52" fill="none" xmlns="http://www.w3.org/2000/svg">
<path d="M0.907258 20.9932V14.0521H6.10457V3.65747H15.7469V14.0521H21.7991V20.9932H15.7469V40.6883C15.7469 42.2156 15.9407 43.173 16.3282 43.5605C16.7157 43.9252 17.9011 44.1076 19.8843 44.1076C20.1806 44.1076 20.4884 44.1076 20.8075 44.1076C21.1494 44.0848 21.4799 44.062 21.7991 44.0392V51.3223L17.183 51.4932C12.5784 51.6528 9.43267 50.855 7.74582 49.0997C6.65165 47.9828 6.10457 46.2617 6.10457 43.9366V20.9932H0.907258ZM48.2985 12.8211C48.4809 12.8211 48.6291 12.8325 48.743 12.8553C48.8798 12.8553 49.1647 12.8667 49.5978 12.8895V22.8738C48.9824 22.8055 48.4353 22.7599 47.9566 22.7371C47.4779 22.7143 47.0904 22.7029 46.794 22.7029C42.8733 22.7029 40.2404 23.9794 38.8955 26.5325C38.1432 27.9686 37.7671 30.1797 37.7671 33.1659V50.9803H27.9538V13.7102H37.2542V20.2068C38.7587 17.7221 40.0694 16.0239 41.1864 15.1121C43.01 13.5848 45.3807 12.8211 48.2985 12.8211ZM51.6836 50.9803L64.4033 32.1059L52.2307 13.7785H64.164L70.3871 24.5835L76.4734 13.7785H88.0648L75.8237 31.9349L88.5435 50.9803H76.405L69.9768 39.7993L63.5143 50.9803H51.6836ZM117.3 13.7102H127.763L114.325 50.9803H104.033L90.6634 13.7102H101.605L109.367 41.2012L117.3 13.7102ZM143.252 50.9803H133.507V0.580115H143.252V50.9803ZM152.621 40.7909H162.981V50.9803H152.621V40.7909Z" fill="white"/>
</svg>
